<svg xmlns="http://www.w3.org/2000/svg" width="1200" height="720" viewBox="0 0 1200 720" role="img" aria-labelledby="title desc">
  <title id="title">Scaled dot-product attention</title>
  <desc id="desc">A clean attention pipeline from input states through QKV, scores, softmax, and output.</desc>
  <defs>
    <linearGradient id="bg" x1="0" y1="0" x2="1" y2="1">
      <stop offset="0%" stop-color="#f8fbff"/>
      <stop offset="50%" stop-color="#fff8ed"/>
      <stop offset="100%" stop-color="#f1fff7"/>
    </linearGradient>
    <filter id="shadow" x="-20%" y="-20%" width="140%" height="140%">
      <feDropShadow dx="0" dy="12" stdDeviation="14" flood-color="#172033" flood-opacity="0.14"/>
    </filter>
    <marker id="arrow" markerWidth="13" markerHeight="13" refX="11" refY="6.5" orient="auto">
      <path d="M2 2 L11 6.5 L2 11 Z" fill="#334155"/>
    </marker>
    <marker id="blueArrow" markerWidth="13" markerHeight="13" refX="11" refY="6.5" orient="auto">
      <path d="M2 2 L11 6.5 L2 11 Z" fill="#2563eb"/>
    </marker>
    <style>
      text { font-family: Inter, ui-sans-serif, system-ui, -apple-system, BlinkMacSystemFont, "Segoe UI", sans-serif; fill: #172033; }
      .title { font-size: 34px; font-weight: 780; }
      .subtitle { font-size: 17px; fill: #637086; }
      .step { font-size: 18px; font-weight: 760; }
      .small { font-size: 14px; fill: #637086; }
      .tiny { font-size: 12px; fill: #637086; }
      .mono { font-family: "SFMono-Regular", Consolas, monospace; font-size: 15px; }
      .card { fill: #ffffff; stroke: #dce6f0; stroke-width: 1.4; filter: url(#shadow); }
      .line { stroke: #334155; stroke-width: 3.4; fill: none; marker-end: url(#arrow); }
      .blue { stroke: #2563eb; stroke-width: 3.2; fill: none; marker-end: url(#blueArrow); }
      .cell { stroke: #ffffff; stroke-width: 2; }
    </style>
  </defs>

  <rect width="1200" height="720" rx="40" fill="url(#bg)"/>
  <text x="72" y="76" class="title">Attention asks which previous tokens matter</text>
  <text x="72" y="110" class="subtitle">Queries compare with keys, then weights blend the value vectors.</text>

  <g transform="translate(70 180)">
    <rect width="210" height="330" rx="24" class="card"/>
    <text x="105" y="48" text-anchor="middle" class="step">Input states</text>
    <text x="105" y="78" text-anchor="middle" class="small">one vector per token</text>
    <rect x="38" y="118" width="134" height="34" rx="10" fill="#dbeafe"/>
    <rect x="38" y="164" width="134" height="34" rx="10" fill="#dcfce7"/>
    <rect x="38" y="210" width="134" height="34" rx="10" fill="#ffedd5"/>
    <rect x="38" y="256" width="134" height="34" rx="10" fill="#f5d0fe"/>
    <text x="105" y="140" text-anchor="middle" class="tiny">x[0]</text>
    <text x="105" y="186" text-anchor="middle" class="tiny">x[1]</text>
    <text x="105" y="232" text-anchor="middle" class="tiny">x[2]</text>
    <text x="105" y="278" text-anchor="middle" class="tiny">x[3]</text>
  </g>

  <path d="M292 345 H346" class="line"/>

  <g transform="translate(365 178)">
    <rect width="190" height="334" rx="24" class="card"/>
    <text x="95" y="50" text-anchor="middle" class="step">Project</text>
    <g transform="translate(34 94)">
      <rect width="122" height="56" rx="16" fill="#eff6ff" stroke="#93c5fd" stroke-width="1.4"/>
      <rect y="82" width="122" height="56" rx="16" fill="#ecfdf5" stroke="#86efac" stroke-width="1.4"/>
      <rect y="164" width="122" height="56" rx="16" fill="#fff7ed" stroke="#fdba74" stroke-width="1.4"/>
      <text x="38" y="36" text-anchor="middle" class="step">Q</text>
      <text x="38" y="118" text-anchor="middle" class="step">K</text>
      <text x="38" y="200" text-anchor="middle" class="step">V</text>
      <text x="86" y="36" text-anchor="middle" class="small">query</text>
      <text x="86" y="118" text-anchor="middle" class="small">key</text>
      <text x="86" y="200" text-anchor="middle" class="small">value</text>
    </g>
  </g>

  <path d="M565 289 C606 289, 612 313, 648 330" class="blue"/>
  <path d="M565 371 C606 371, 612 354, 648 348" class="blue"/>

  <g transform="translate(665 178)">
    <rect width="210" height="334" rx="24" class="card"/>
    <text x="105" y="50" text-anchor="middle" class="step">Masked scores</text>
    <text x="105" y="80" text-anchor="middle" class="mono">QK^T / sqrt(d)</text>
    <g transform="translate(51 122)">
      <rect width="32" height="32" fill="#1d4ed8" class="cell"/>
      <rect x="38" width="32" height="32" fill="#e2e8f0" class="cell"/>
      <rect x="76" width="32" height="32" fill="#e2e8f0" class="cell"/>
      <rect x="114" width="32" height="32" fill="#e2e8f0" class="cell"/>
      <rect y="38" width="32" height="32" fill="#60a5fa" class="cell"/>
      <rect x="38" y="38" width="32" height="32" fill="#2563eb" class="cell"/>
      <rect x="76" y="38" width="32" height="32" fill="#e2e8f0" class="cell"/>
      <rect x="114" y="38" width="32" height="32" fill="#e2e8f0" class="cell"/>
      <rect y="76" width="32" height="32" fill="#93c5fd" class="cell"/>
      <rect x="38" y="76" width="32" height="32" fill="#3b82f6" class="cell"/>
      <rect x="76" y="76" width="32" height="32" fill="#1d4ed8" class="cell"/>
      <rect x="114" y="76" width="32" height="32" fill="#e2e8f0" class="cell"/>
      <rect y="114" width="32" height="32" fill="#bfdbfe" class="cell"/>
      <rect x="38" y="114" width="32" height="32" fill="#60a5fa" class="cell"/>
      <rect x="76" y="114" width="32" height="32" fill="#3b82f6" class="cell"/>
      <rect x="114" y="114" width="32" height="32" fill="#1d4ed8" class="cell"/>
    </g>
    <text x="105" y="304" text-anchor="middle" class="tiny">future tokens are masked</text>
  </g>

  <path d="M887 345 H935" class="line"/>

  <g transform="translate(952 178)">
    <rect width="178" height="334" rx="24" class="card"/>
    <text x="89" y="50" text-anchor="middle" class="step">Softmax</text>
    <text x="89" y="80" text-anchor="middle" class="small">scores to weights</text>
    <rect x="42" y="128" width="94" height="18" rx="9" fill="#dbeafe"/>
    <rect x="42" y="166" width="74" height="18" rx="9" fill="#93c5fd"/>
    <rect x="42" y="204" width="52" height="18" rx="9" fill="#3b82f6"/>
    <rect x="42" y="242" width="30" height="18" rx="9" fill="#1d4ed8"/>
  </g>

  <path d="M1041 512 C1008 566, 904 586, 838 586" class="line"/>
  <rect x="899" y="552" width="72" height="24" rx="12" fill="#ffffff" opacity="0.94"/>
  <text x="935" y="570" text-anchor="middle" class="tiny">weights</text>
  <path d="M555 430 C600 472, 612 506, 612 540" class="blue"/>
  <rect x="604" y="478" width="58" height="24" rx="12" fill="#ffffff" opacity="0.94"/>
  <text x="620" y="496" class="tiny">values</text>

  <g transform="translate(374 548)">
    <rect width="452" height="86" rx="20" class="card"/>
    <text x="226" y="34" text-anchor="middle" class="step">Weighted value sum</text>
    <text x="226" y="62" text-anchor="middle" class="mono">softmax(scores) * V</text>
  </g>
</svg>
